Coordinates
version=1
nRows=24
nColumns=24
inDegrees=yes

Units are S.I. units (second, meters, Newtons, ...)
Angles are in degrees.

endheader
time	pelvis_tilt	pelvis_list	pelvis_rotation	pelvis_tx	pelvis_ty	pelvis_tz	hip_flexion_r	hip_adduction_r	hip_rotation_r	knee_angle_r	ankle_angle_r	subtalar_angle_r	mtp_angle_r	hip_flexion_l	hip_adduction_l	hip_rotation_l	knee_angle_l	ankle_angle_l	subtalar_angle_l	mtp_angle_l	lumbar_extension	lumbar_bending	lumbar_rotation
      5.86000000	    -12.23581690	      6.51791858	      6.34971310	     -0.44232107	     -0.03425337	      2.00006420	     15.56671810	    -13.63689175	    -15.09013631	    -59.28400153	    -24.25349871	    -10.01048284	     23.61583339	     29.68381585	     12.62459749	     -3.27055924	    -21.79628437	     -3.66893878	     -7.39051910	     16.14950544	      9.21209687	     -9.23663687	     -4.45062758
      5.87000000	    -12.16236797	      6.63366719	      6.10581613	     -0.42986597	     -0.03212934	      1.99948798	     17.41957686	    -13.56177394	    -13.79304354	    -60.76269890	    -22.65596363	    -11.18945079	     23.57785359	     28.45541279	     12.53500430	     -3.83388979	    -21.27111354	     -2.92986248	     -6.72663852	     16.79605006	      9.07808590	     -9.25860802	     -4.47628578
      5.88000000	    -12.22271713	      6.65994337	      5.94080467	     -0.41750634	     -0.03016090	      1.99892867	     19.40564972	    -13.35381564	    -12.59307072	    -61.98154897	    -20.95245323	    -11.83638728	     22.34528835	     27.29910505	     12.42558333	     -4.17605730	    -20.54852008	     -2.69513118	     -6.42168144	     19.16680577	      9.08691437	     -9.22802088	     -4.61612886
      5.89000000	    -12.05693735	      6.72822060	      5.73476310	     -0.40517122	     -0.02796612	      1.99832319	     21.07124753	    -13.14096788	    -11.43347934	    -62.80806764	    -19.44260954	    -12.06184313	     22.67812201	     25.81029234	     12.40510829	     -4.24401109	    -19.73650403	     -2.16458769	     -6.16198477	     19.24300750	      8.85055498	     -9.19849989	     -4.69469712
      5.90000000	    -11.94795940	      6.72552136	      5.54554261	     -0.39289688	     -0.02592637	      1.99766359	     22.73839086	    -12.82807248	    -10.34642535	    -63.31517688	    -17.94397585	    -11.92855633	     23.36543504	     24.35047812	     12.36626935	     -4.15521279	    -18.85199045	     -1.68413161	     -6.09350668	     18.94090981	      8.67998310	     -9.09848669	     -4.82202011
      5.91000000	    -11.76648610	      6.67413203	      5.40446009	     -0.38072913	     -0.02394121	      1.99686694	     24.22157676	    -12.46784969	     -9.40089763	    -63.47029425	    -16.50285343	    -11.58267298	     24.91893310	     22.80149892	     12.34351171	     -3.79125067	    -17.95991781	     -1.14512575	     -6.18930174	     17.70796014	      8.41167546	     -8.94266223	     -4.93874332
      5.92000000	    -11.62623877	      6.42916335	      5.49978784	     -0.36869277	     -0.02214036	      1.99581027	     25.56474336	    -12.01423012	     -8.85596725	    -63.24873953	    -15.07202877	    -11.12693267	     26.98424360	     21.37237263	     12.20161690	     -3.20533218	    -17.24577427	     -0.31031783	     -5.99916160	     15.79789249	      8.15407651	     -8.64165355	     -5.34261150
      5.93000000	    -11.53883776	      6.17080172	      5.55029338	     -0.35675989	     -0.02053086	      1.99490995	     26.92233595	    -11.50139411	     -8.31983174	    -62.79469493	    -13.49023805	    -10.58943378	     27.40285598	     20.02208176	     11.99909716	     -2.78698549	    -16.46175943	      0.08931587	     -6.02618792	     15.57742856	      7.95105642	     -8.33067911	     -5.67840311
      5.94000000	    -11.25610659	      5.82934650	      5.66855892	     -0.34487247	     -0.01875713	      1.99386215	     27.90487010	    -10.95378959	     -8.03849498	    -61.94404739	    -12.19434213	    -10.21985976	     28.15488132	     18.47200718	     11.72913595	     -2.20102120	    -15.70266152	      0.56021067	     -6.12736658	     14.65061362	      7.52527076	     -7.91934557	     -6.06916354
      5.95000000	    -11.27627470	      5.43717200	      5.84798883	     -0.33313400	     -0.01754982	      1.99285454	     29.17780685	    -10.41397170	     -7.86762610	    -60.91229385	    -11.02369679	     -9.91562949	     28.35127384	     17.35155243	     11.39085244	     -1.80854050	    -15.07495601	      1.04165060	     -5.97577501	     14.55910159	      7.41939299	     -7.50614651	     -6.42572412
      5.96000000	    -11.09521112	      5.03238384	      6.19190275	     -0.32139003	     -0.01621196	      1.99163463	     30.04837980	     -9.99803318	     -8.05352860	    -59.56078189	     -9.96112362	     -9.71729455	     28.35153690	     16.01211324	     11.05332398	     -1.37903628	    -14.44948555	      1.50176203	     -5.74099030	     14.32335256	      7.07559549	     -7.07940600	     -6.97506668
      5.97000000	    -10.84312051	      4.61065580	      6.46421241	     -0.30967891	     -0.01494382	      1.99055611	     30.78521419	     -9.52511112	     -8.25817086	    -57.97360499	     -9.14908188	     -9.69526986	     27.63770383	     14.60371635	     10.65454169	     -0.95564899	    -13.80604169	      1.96612251	     -5.58074281	     13.93914762	      6.66610124	     -6.61616983	     -7.38835664
      5.98000000	    -10.80893790	      4.17069009	      6.91632955	     -0.29802383	     -0.01416258	      1.98926522	     31.65884779	     -9.20925887	     -8.72131766	    -56.21426944	     -8.41103918	     -9.60647872	     27.11911786	     13.49162609	     10.27489473	     -0.53690671	    -13.25768402	      2.44531708	     -5.27021360	     13.95394066	      6.48516551	     -6.18027779	     -7.96044635
      5.99000000	    -10.65588861	      3.78155443	      7.23729371	     -0.28633235	     -0.01346035	      1.98826173	     32.36036943	     -8.83148379	     -9.06260588	    -54.32683054	     -7.44720282	     -9.37037838	     24.09188940	     12.22584162	      9.88620582	     -0.16943994	    -12.64414109	      2.88744879	     -5.08920637	     13.82722167	      6.19345100	     -5.76738478	     -8.35089520
      6.00000000	    -10.60850347	      3.34165221	      7.67791620	     -0.27472703	     -0.01306821	      1.98709282	     33.03755442	     -8.53330019	     -9.62907534	    -52.13703971	     -6.89206361	     -9.24796231	     23.69295628	     11.12737080	      9.46978575	      0.27418547	    -12.10246844	      3.31219058	     -4.92457601	     13.87478254	      6.01181278	     -5.32599035	     -8.86549062
      6.01000000	    -10.35146111	      2.97784518	      7.95215825	     -0.26307048	     -0.01265598	      1.98622041	     33.41382679	     -8.16798847	    -10.02731783	    -49.77423333	     -6.16182630	     -8.87543841	     22.19680914	      9.75489762	      9.05448544	      0.63233833	    -11.46690067	      3.69308336	     -4.89678958	     13.75004862	      5.61872252	     -4.90861003	     -9.19982448
      6.02000000	    -10.32471428	      2.60492255	      8.30922504	     -0.25151067	     -0.01272057	      1.98531970	     33.95580176	     -7.88875373	    -10.55169217	    -47.25301300	     -5.50736902	     -8.36564975	     20.99988222	      8.69609130	      8.65288694	      1.00325639	    -10.94050180	      4.15624580	     -4.76255394	     13.56771468	      5.46700852	     -4.52566496	     -9.61030609
      6.03000000	    -10.45433497	      2.29655995	      8.64008265	     -0.23997741	     -0.01318591	      1.98449862	     34.60459883	     -7.71659276	    -11.11938348	    -44.59341124	     -4.96350828	     -7.64461276	     20.71790531	      7.83167625	      8.31829529	      1.26000651	    -10.45624448	      4.61114196	     -4.56383756	     13.50951813	      5.47888556	     -4.22790019	     -9.95787493
      6.04000000	    -10.43814170	      2.00831295	      8.85340952	     -0.22832394	     -0.01366658	      1.98388152	     35.00204498	     -7.48858540	    -11.72725936	    -41.74986930	     -4.44202445	     -6.75046968	     20.52810082	      6.78435237	      7.94926992	      1.41133828	     -9.92871369	      5.10317712	     -4.38141775	     13.36151699	      5.35207741	     -3.91302641	    -10.19830590
      6.05000000	    -10.43076536	      1.73915931	      8.96522925	     -0.21659479	     -0.01430590	      1.98345705	     35.34328999	     -7.23204006	    -12.38404773	    -38.77818663	     -3.99392437	     -5.62767642	     20.57163645	      5.75854690	      7.56981467	      1.37770131	     -9.42224927	      5.63382823	     -4.09395887	     13.18746196	      5.24235538	     -3.60614342	    -10.34148090
      6.06000000	    -10.39834757	      1.44329258	      8.98524241	     -0.20483746	     -0.01500914	      1.98323140	     35.58327124	     -6.88932206	    -13.11870328	    -35.67374292	     -3.64672448	     -4.25972379	     20.95810576	      4.74478945	      7.12955759	      1.13864638	     -8.97385165	      6.22515130	     -3.64994009	     13.02104922	      5.11061167	     -3.25658209	    -10.42706169
      6.07000000	    -10.27285707	      1.13216447	      8.83212151	     -0.19296640	     -0.01569323	      1.98329087	     35.62883280	     -6.40208841	    -13.91259477	    -32.38258317	     -3.53453532	     -2.81680685	     23.35511576	      3.64416688	      6.63723480	      0.67602315	     -8.56140147	      6.88971433	     -3.14905409	     12.44057745	      4.89287483	     -2.85607255	    -10.24838382
      6.08000000	    -10.31652066	      0.70200483	      8.72721615	     -0.18120443	     -0.01655377	      1.98349098	     35.77969344	     -5.79867257	    -14.83889623	    -29.05515389	     -3.29679432	     -1.15242242	     24.28854495	      2.86167344	      6.03017368	      0.04230822	     -8.34204896	      7.55939107	     -2.42773194	     12.58905923	      4.84355313	     -2.37971935	    -10.17198630
      6.09000000	    -10.39910748	      0.30716769	      8.51455710	     -0.16936125	     -0.01759165	      1.98391975	     35.91416250	     -5.12463637	    -15.66177283	    -25.75360575	     -2.87704067	      0.71924092	     25.07202660	      2.13746994	      5.46748866	     -0.71071859	     -8.17468067	      8.18460492	     -1.78288826	     12.74417177	      4.83662230	     -1.93359344	     -9.99143371
